<mxfile host="Electron" modified="2023-12-20T13:08:11.333Z" agent="Mozilla/5.0 (Windows NT 10.0; Win64; x64) AppleWebKit/537.36 (KHTML, like Gecko) draw.io/22.1.2 Chrome/114.0.5735.289 Electron/25.9.4 Safari/537.36" etag="FNskvBLRKwkVdyQp3KAr" version="22.1.2" type="device">
  <diagram name="Page-1" id="B4N2S75nflqeGTzwn8xi">
    <mxGraphModel dx="209" dy="1783" grid="1" gridSize="10" guides="1" tooltips="1" connect="1" arrows="1" fold="1" page="1" pageScale="1" pageWidth="827" pageHeight="1169" math="0" shadow="0">
      <root>
        <mxCell id="0" />
        <mxCell id="1" parent="0" />
        <mxCell id="QGV1TojfyUTg97D76qeK-2" value="&lt;p style=&quot;margin:0px;margin-top:4px;text-align:center;&quot;&gt;&lt;b&gt;Transcript&lt;/b&gt;&lt;/p&gt;&lt;hr size=&quot;1&quot;/&gt;&lt;p style=&quot;margin:0 0 0 4px;line-height:1.6;&quot;&gt;+ Transcript(Student): &lt;/p&gt;&lt;hr size=&quot;1&quot;/&gt;&lt;p style=&quot;margin:0 0 0 4px;line-height:1.6;&quot;&gt;- completedCredits: int&lt;br/&gt;- courseGradeMap: Map&amp;lt;Course, List&amp;lt;Grade&amp;gt;&amp;gt;&lt;br/&gt;- semester: byte&lt;br/&gt;- takenCredits: int&lt;br/&gt;- studentCourses: List&amp;lt;Course&amp;gt;&lt;br/&gt;- cgpa: double&lt;br/&gt;- student: Student&lt;/p&gt;&lt;hr size=&quot;1&quot;/&gt;&lt;p style=&quot;margin:0 0 0 4px;line-height:1.6;&quot;&gt;+ courseStatusCheck(): void&lt;br/&gt;+ setTakenCredits(int): void&lt;br/&gt;+ calculateValues(): void&lt;br/&gt;+ calculateCompletedCredits(): int&lt;br/&gt;+ showTranscript(): void&lt;br/&gt;+ getCompletedCredits(): int&lt;br/&gt;+ getStudentCourses(): List&amp;lt;Course&amp;gt;&lt;br/&gt;+ calculateTakenCredits(): int&lt;br/&gt;+ getTakenCredits(): int&lt;br/&gt;+ setStudentCourses(List&amp;lt;Course&amp;gt;): void&lt;br/&gt;+ getCourseGradeMap(): Map&amp;lt;Course, List&amp;lt;Grade&amp;gt;&amp;gt;&lt;br/&gt;+ setStudent(Student): void&lt;br/&gt;+ calculateCgpa(): double&lt;br/&gt;+ setCourseGradeMap(Map&amp;lt;Course, List&amp;lt;Grade&amp;gt;&amp;gt;): void&lt;br/&gt;+ getCgpa(): double&lt;/p&gt;" style="verticalAlign=top;align=left;overflow=fill;fontSize=14;fontFamily=Helvetica;html=1;rounded=0;shadow=0;comic=0;labelBackgroundColor=none;strokeWidth=1;" vertex="1" parent="1">
          <mxGeometry x="1000" y="-399" width="394" height="599" as="geometry" />
        </mxCell>
      </root>
    </mxGraphModel>
  </diagram>
</mxfile>
